<svg width="56" height="56" viewBox="0 0 56 56" fill="none" xmlns="http://www.w3.org/2000/svg">
<path d="M33.2307 27.6553C33.2307 31.0262 30.7507 33.7588 27.6912 33.7588C24.6317 33.7588 22.1538 31.0262 22.1538 27.6553C22.1538 24.2843 24.6339 21.5518 27.6912 21.5518C30.7485 21.5518 33.2307 24.2843 33.2307 27.6553Z" fill="white"/>
<path d="M27.6923 0C12.3992 0 0 12.3992 0 27.6923C0 42.9854 12.3992 55.3846 27.6923 55.3846C42.9854 55.3846 55.3846 42.9854 55.3846 27.6923C55.3846 12.3992 42.9854 0 27.6923 0ZM45.3162 35.0538C45.2308 36.9623 44.9262 38.2662 44.4831 39.4062C44.0238 40.5854 43.41 41.5869 42.4131 42.5838C41.4162 43.5808 40.4146 44.1946 39.2377 44.6515C38.0977 45.0946 36.7915 45.3969 34.8831 45.4846C32.97 45.5723 32.3585 45.5931 27.4869 45.5931C22.6154 45.5931 22.0062 45.5723 20.0931 45.4846C18.1846 45.3969 16.8808 45.0946 15.7385 44.6515C14.5592 44.1946 13.56 43.5785 12.5608 42.5838C11.5638 41.5869 10.95 40.5854 10.4908 39.4062C10.0477 38.2662 9.74538 36.9623 9.65769 35.0538C9.57 33.1408 9.54923 32.5292 9.54923 27.6577C9.54923 22.7862 9.57 22.1769 9.65769 20.2638C9.74538 18.3554 10.0477 17.0515 10.4908 15.9092C10.95 14.73 11.5638 13.7308 12.5608 12.7338C13.5577 11.7369 14.5592 11.1231 15.7385 10.6638C16.8785 10.2208 18.1846 9.91846 20.0931 9.83077C22.0062 9.74308 22.6177 9.72231 27.4869 9.72231C32.3562 9.72231 32.97 9.74308 34.8831 9.83077C36.7915 9.91615 38.0954 10.2208 39.2377 10.6638C40.4169 11.1208 41.4162 11.7369 42.4131 12.7338C43.41 13.7308 44.0238 14.7323 44.4831 15.9092C44.9262 17.0492 45.2285 18.3554 45.3162 20.2638C45.4038 22.1769 45.4246 22.7862 45.4246 27.6577C45.4246 32.5292 45.4038 33.1385 45.3162 35.0538ZM41.4715 17.0815C41.1462 16.2438 40.7585 15.6462 40.1285 15.0185C39.5008 14.3908 38.9031 14.0008 38.0654 13.6754C37.4331 13.4308 36.4846 13.1377 34.7354 13.0592C32.8431 12.9715 32.2754 12.9554 27.4869 12.9554C22.6985 12.9554 22.1308 12.9738 20.2385 13.0592C18.4915 13.1377 17.5408 13.4308 16.9085 13.6754C16.0708 14.0008 15.4731 14.3885 14.8454 15.0185C14.2177 15.6462 13.8277 16.2438 13.5023 17.0815C13.2577 17.7138 12.9646 18.6623 12.8862 20.4115C12.7985 22.3015 12.7823 22.8692 12.7823 27.66C12.7823 32.4508 12.8008 33.0162 12.8862 34.9085C12.9669 36.6554 13.2577 37.6062 13.5023 38.2385C13.8277 39.0762 14.2154 39.6738 14.8454 40.3015C15.4731 40.9292 16.0708 41.3169 16.9085 41.6423C17.5408 41.8892 18.4892 42.18 20.2385 42.2608C22.1285 42.3485 22.6962 42.3646 27.4869 42.3646C32.2777 42.3646 32.8454 42.3462 34.7354 42.2608C36.4846 42.18 37.4331 41.8892 38.0654 41.6423C38.9031 41.3169 39.5008 40.9292 40.1285 40.3015C40.7562 39.6738 41.1462 39.0762 41.4715 38.2385C41.7162 37.6062 42.0092 36.6577 42.0877 34.9085C42.1754 33.0162 42.1938 32.4485 42.1938 27.66C42.1938 22.8715 42.1754 22.3038 42.0877 20.4115C42.0069 18.6623 41.7162 17.7138 41.4715 17.0815ZM27.4892 36.8677C22.4031 36.8677 18.2792 32.7438 18.2792 27.6577C18.2792 22.5715 22.4031 18.4477 27.4892 18.4477C32.5754 18.4477 36.6992 22.5715 36.6992 27.6577C36.6992 32.7438 32.5754 36.8677 27.4892 36.8677ZM37.0638 20.2362C35.8754 20.2362 34.9108 19.2738 34.9108 18.0854C34.9108 16.8969 35.8731 15.9323 37.0638 15.9323C38.2546 15.9323 39.2169 16.8969 39.2169 18.0854C39.2169 19.2738 38.2523 20.2362 37.0638 20.2362Z" fill="white"/>
</svg>
